<?xml version="1.0" encoding="utf-8"?>
<!-- Generator: Adobe Illustrator 15.0.2, SVG Export Plug-In . SVG Version: 6.00 Build 0)  -->
<!DOCTYPE svg PUBLIC "-//W3C//DTD SVG 1.1//EN" "http://www.w3.org/Graphics/SVG/1.1/DTD/svg11.dtd">
<svg version="1.1" id="Layer_1" xmlns="http://www.w3.org/2000/svg" xmlns:xlink="http://www.w3.org/1999/xlink" x="0px" y="0px"
	 width="300px" height="300px" viewBox="0 0 300 300" enable-background="new 0 0 300 300" xml:space="preserve">
<path id="XMLID_21_" fill="#FFFFFF" d="M265.406,65.299v-17.56L154.028,66.16v177.621l111.378-18.422V68.538"/>
<path id="XMLID_20_" fill="#FFFFFF" d="M36.415,69.981V225.51l110.488,18.271V67.623L36.415,49.354V66.77"/>
<linearGradient id="XMLID_2_" gradientUnits="userSpaceOnUse" x1="299.2004" y1="688.4199" x2="592.1321" y2="688.4199" gradientTransform="matrix(1 0 0 1 -295.2002 -540.6797)">
	<stop  offset="0" style="stop-color:#119BFA"/>
	<stop  offset="0.1652" style="stop-color:#2E8DF9"/>
	<stop  offset="0.3435" style="stop-color:#4682F9"/>
	<stop  offset="0.5336" style="stop-color:#577AF8"/>
	<stop  offset="0.7414" style="stop-color:#6175F8"/>
	<stop  offset="1" style="stop-color:#6474F8"/>
</linearGradient>
<path id="XMLID_3_" fill="url(#XMLID_2_)" d="M165.652,94.817c-0.325-1.94,0.984-3.775,2.929-4.099l81.104-13.529
	c1.935-0.331,3.777,0.986,4.102,2.927c0.324,1.94-0.984,3.775-2.928,4.098L169.75,97.745c-0.197,0.034-0.396,0.05-0.59,0.05
	C167.449,97.794,165.942,96.559,165.652,94.817z M169.16,126.297c0.193,0,0.393-0.017,0.59-0.05l81.104-13.531
	c1.941-0.323,3.252-2.157,2.928-4.098c-0.322-1.941-2.169-3.254-4.102-2.928l-81.104,13.53c-1.942,0.324-3.254,2.16-2.929,4.099
	C165.942,125.061,167.449,126.297,169.16,126.297z M169.16,154.798c0.193,0,0.393-0.017,0.59-0.048l81.104-13.532
	c1.941-0.322,3.252-2.158,2.928-4.1c-0.322-1.939-2.169-3.253-4.102-2.925l-81.104,13.531c-1.942,0.322-3.254,2.158-2.929,4.099
	C165.942,153.564,167.449,154.798,169.16,154.798z M169.16,183.301c0.193,0,0.393-0.017,0.59-0.05l81.104-13.53
	c1.941-0.322,3.252-2.156,2.928-4.098c-0.322-1.941-2.169-3.258-4.102-2.928l-81.104,13.531c-1.942,0.321-3.254,2.156-2.929,4.096
	C165.942,182.066,167.449,183.301,169.16,183.301z M169.16,211.803c0.193,0,0.393-0.017,0.59-0.05l81.104-13.53
	c1.941-0.32,3.252-2.156,2.928-4.099c-0.322-1.938-2.169-3.257-4.102-2.926l-81.104,13.526c-1.942,0.324-3.254,2.16-2.929,4.102
	C165.942,210.568,167.449,211.803,169.16,211.803z M50.077,84.213l81.104,13.531c0.197,0.034,0.396,0.05,0.589,0.05
	c1.71,0,3.221-1.236,3.509-2.977c0.324-1.94-0.985-3.775-2.928-4.099L51.249,77.189c-1.932-0.33-3.775,0.986-4.1,2.927
	C46.826,82.056,48.137,83.891,50.077,84.213z M50.077,112.716l81.104,13.531c0.197,0.033,0.396,0.05,0.589,0.05
	c1.71,0,3.221-1.236,3.509-2.978c0.324-1.939-0.985-3.774-2.928-4.099l-81.104-13.53c-1.932-0.324-3.775,0.986-4.1,2.928
	C46.826,110.559,48.137,112.394,50.077,112.716z M50.077,141.219l81.104,13.532c0.197,0.031,0.396,0.048,0.589,0.048
	c1.71,0,3.221-1.232,3.509-2.975c0.324-1.941-0.985-3.777-2.928-4.099l-81.103-13.531c-1.932-0.327-3.775,0.986-4.1,2.925
	C46.826,139.061,48.137,140.897,50.077,141.219z M50.077,169.721l81.104,13.53c0.197,0.033,0.396,0.05,0.589,0.05
	c1.71,0,3.221-1.234,3.509-2.979c0.324-1.938-0.985-3.773-2.928-4.096l-81.104-13.531c-1.932-0.327-3.775,0.984-4.1,2.928
	C46.826,167.564,48.137,169.398,50.077,169.721z M50.077,198.223l81.104,13.53c0.197,0.033,0.396,0.05,0.589,0.05
	c1.71,0,3.221-1.234,3.509-2.977c0.324-1.939-0.985-3.775-2.928-4.102l-81.104-13.526c-1.932-0.331-3.775,0.987-4.1,2.926
	C46.826,196.066,48.137,197.902,50.077,198.223z M296.932,67.331v167.218c0,3.68-2.804,6.756-6.471,7.094L151.12,254.454
	c-0.219,0.021-0.438,0.028-0.653,0.028s-0.438-0.01-0.652-0.028L10.471,241.641C6.805,241.305,4,238.227,4,234.548V67.331
	c0-3.933,3.188-7.124,7.123-7.124h17.278V44.562c0-1.043,0.458-2.034,1.252-2.71c0.796-0.676,1.85-0.972,2.874-0.806l117.938,18.909
	l117.937-18.91c1.029-0.167,2.078,0.128,2.874,0.806c0.793,0.677,1.252,1.667,1.252,2.71v15.646h17.279
	C293.744,60.207,296.932,63.397,296.932,67.331z M265.406,48.739L154.028,66.596v172.185l111.378-17.858V68.901
	c-0.113-0.506-0.187-1.028-0.187-1.57c0-0.54,0.071-1.063,0.187-1.569V48.739z M36.415,50.304v16.883
	c0.111,0.501,0.185,1.021,0.185,1.556c0,0.538-0.072,1.055-0.185,1.558v150.77l110.488,17.713V68.014L36.415,50.304z
	 M18.246,228.047l39.231,3.61L31.4,227.475c-1.728-0.274-2.999-1.77-2.999-3.518V74.455H18.246V228.047z M282.687,74.455H272.53
	V223.96c0,1.748-1.271,3.241-2.996,3.517l-26.077,4.184l39.23-3.61V74.455L282.687,74.455z"/>
</svg>
